<?xml version="1.0" encoding="iso-8859-1"?>
<!-- Generator: Adobe Illustrator 19.0.0, SVG Export Plug-In . SVG Version: 6.00 Build 0)  -->
<svg version="1.1" id="Layer_1" xmlns="http://www.w3.org/2000/svg" xmlns:xlink="http://www.w3.org/1999/xlink" x="0px" y="0px"
	 viewBox="0 0 512 512" style="enable-background:new 0 0 512 512;" xml:space="preserve">
<g>
	<g>
		<path fill="#fff" d="M381.372,113.91h-68.988V33.528C312.383,15.041,297.342,0,278.854,0h-45.708c-18.487,0-33.528,15.041-33.528,33.528
			v16.725c0,4.438,3.598,8.035,8.035,8.035s8.035-3.598,8.035-8.035V33.528c0-9.626,7.832-17.458,17.458-17.458h45.708
			c9.626,0,17.459,7.832,17.459,17.458v88.416c0,4.438,3.598,8.035,8.035,8.035h77.023c9.626,0,17.458,7.832,17.458,17.458v45.708
			c0,9.626-7.832,17.458-17.458,17.458h-77.023c-4.438,0-8.035,3.598-8.035,8.035v259.833c0,9.626-7.833,17.458-17.459,17.458
			h-45.708c-9.626,0-17.458-7.832-17.458-17.458V218.639c0-4.438-3.598-8.035-8.035-8.035h-77.024
			c-9.626,0-17.458-7.832-17.458-17.458v-45.708c0-9.626,7.832-17.458,17.458-17.458h77.024c4.438,0,8.035-3.598,8.035-8.035v-39.55
			c0-4.438-3.598-8.035-8.035-8.035s-8.035,3.598-8.035,8.035v31.515h-68.989c-18.487,0-33.528,15.041-33.528,33.528v45.708
			c0,18.487,15.041,33.528,33.528,33.528h68.989v251.798C199.618,496.959,214.659,512,233.146,512h45.708
			c18.487,0,33.529-15.041,33.529-33.528V226.674h68.988c18.487,0,33.528-15.041,33.528-33.528v-45.708
			C414.9,128.951,399.859,113.91,381.372,113.91z"/>
	</g>
</g>
<g>
	<g>
		<path fill="#fff" d="M368.87,140.693h-83.271V46.03c0-10.612-8.634-19.246-19.246-19.246h-20.705c-10.612,0-19.246,8.634-19.246,19.246v94.663
			h-83.271c-10.612,0-19.246,8.634-19.246,19.246v20.706c0,10.612,8.634,19.246,19.246,19.246h83.271v266.08
			c0,10.613,8.634,19.246,19.246,19.246h20.705c10.613,0,19.246-8.634,19.246-19.246v-55.702c0-4.438-3.598-8.035-8.035-8.035
			s-8.035,3.598-8.035,8.035v55.702c0,1.751-1.425,3.175-3.176,3.175h-20.705c-1.751,0-3.175-1.425-3.175-3.175V191.855
			c0-4.438-3.598-8.035-8.035-8.035h-91.306c-1.751,0-3.176-1.425-3.176-3.175v-20.706c0-1.751,1.425-3.176,3.176-3.176h91.306
			c4.438,0,8.035-3.598,8.035-8.035V46.03c0-1.751,1.425-3.176,3.175-3.176h20.705c1.752,0,3.175,1.425,3.175,3.176v102.698
			c0,4.438,3.598,8.035,8.035,8.035h91.306c1.751,0,3.176,1.425,3.176,3.175v20.706c0,1.752-1.425,3.175-3.176,3.175h-91.306
			c-4.438,0-8.035,3.598-8.035,8.035v186.273c0,4.438,3.598,8.035,8.035,8.035c4.438,0,8.035-3.598,8.035-8.035V199.89h83.271
			c10.613,0,19.246-8.634,19.246-19.246v-20.706C388.116,149.327,379.482,140.693,368.87,140.693z"/>
	</g>
</g>
<g>
</g>
<g>
</g>
<g>
</g>
<g>
</g>
<g>
</g>
<g>
</g>
<g>
</g>
<g>
</g>
<g>
</g>
<g>
</g>
<g>
</g>
<g>
</g>
<g>
</g>
<g>
</g>
<g>
</g>
</svg>
